<?xml version="1.0" encoding="UTF-8"?>
<svg id="Layer_1" data-name="Layer 1" xmlns="http://www.w3.org/2000/svg" viewBox="0 0 1487.23 792">
  <defs>
    <style>
      .cls-1 {
        fill: #941b1e;
      }

      .cls-2, .cls-3 {
        fill: #fff;
      }

      .cls-3, .cls-4 {
        stroke: #fff;
        stroke-miterlimit: 10;
        stroke-width: 10px;
      }

      .cls-5 {
        fill: #941a1d;
      }

      .cls-4 {
        fill: none;
      }

      .cls-6 {
        fill: #123b62;
      }
    </style>
  </defs>
  <path class="cls-5" d="m363.28,224.39v204.07s0,48.62-57.32,94.93c-57.33,46.32-93.55,64.2-93.55,64.2,0,0-.34-.2-.98-.58V204.4c26.41,1.16,55.08,3.61,85.6,7.96,23.57,3.36,45.69,7.48,66.26,12.04Z"/>
  <path class="cls-6" d="m59.56,224.39v204.07s0,48.62,57.32,94.93c57.33,46.32,93.55,64.2,93.55,64.2,0,0,.34-.2.98-.58V204.4c-26.41,1.16-55.08,3.61-85.6,7.96-23.57,3.36-45.69,7.48-66.26,12.04Z"/>
  <path class="cls-4" d="m227.17,530.93c-4.99,5.29-9.98,10.58-14.97,15.86-5.01-5.29-10.02-10.58-15.03-15.86v-220.01h30v220.01Z"/>
  <rect class="cls-2" x="204.67" y="188.68" width="15" height="250" transform="translate(525.85 101.51) rotate(90)"/>
  <circle class="cls-3" cx="212.17" cy="255.55" r="23.9"/>
  <polygon class="cls-4" points="118.37 378.58 86.71 433.42 150.04 433.42 118.37 378.58"/>
  <polygon class="cls-4" points="305.04 378.58 273.37 433.42 336.71 433.42 305.04 378.58"/>
  <path class="cls-2" d="m310.06,370.51c-1.66-2.73-3.31-5.46-4.97-8.19-1.69,2.73-3.37,5.46-5.06,8.19v-42.01h10.03v42.01Z"/>
  <path class="cls-2" d="m123.39,370.51c-1.66-2.73-3.31-5.46-4.97-8.19-1.69,2.73-3.37,5.46-5.06,8.19v-42.01h10.03v42.01Z"/>
  <path class="cls-2" d="m237.17,300.18h-50v-4.6c2.16-1.8,4.31-3.6,6.47-5.4,12.19,0,24.38,0,36.57,0,2.32,1.61,4.64,3.22,6.95,4.83v5.17Z"/>
  <path class="cls-2" d="m152.83,442.93v2.21c-4.43,2.86-8.87,5.72-13.3,8.58h-42.32c-4.43-2.86-8.87-5.72-13.3-8.58v-2.21h68.92Z"/>
  <path class="cls-2" d="m339.5,442.93v2.21c-4.43,2.86-8.87,5.72-13.3,8.58h-42.32c-4.43-2.86-8.87-5.72-13.3-8.58v-2.21h68.92Z"/>
  <g>
    <path class="cls-6" d="m480.91,243.27l32.87,92.81,32.7-92.81h34.63v127.97h-26.46v-34.98l2.64-60.38-34.54,95.36h-18.11l-34.45-95.27,2.64,60.29v34.98h-26.37v-127.97h34.45Z"/>
    <path class="cls-6" d="m677.97,344.87h-46.23l-8.79,26.37h-28.04l47.64-127.97h24.43l47.9,127.97h-28.04l-8.88-26.37Zm-39.11-21.36h31.99l-16.08-47.9-15.91,47.9Z"/>
    <path class="cls-6" d="m793.19,337.67c0-4.98-1.76-8.8-5.27-11.47-3.52-2.67-9.84-5.48-18.98-8.44-9.14-2.96-16.38-5.87-21.71-8.75-14.53-7.85-21.8-18.43-21.8-31.73,0-6.91,1.95-13.08,5.84-18.5,3.9-5.42,9.49-9.65,16.79-12.7,7.29-3.05,15.48-4.57,24.57-4.57s17.28,1.66,24.43,4.97c7.15,3.31,12.7,7.98,16.66,14.02,3.96,6.04,5.93,12.89,5.93,20.57h-26.37c0-5.86-1.85-10.42-5.54-13.67s-8.88-4.88-15.56-4.88-11.46,1.36-15.03,4.09c-3.57,2.72-5.36,6.31-5.36,10.77,0,4.16,2.09,7.65,6.28,10.46,4.19,2.81,10.36,5.45,18.5,7.91,15,4.51,25.93,10.11,32.78,16.79s10.28,15,10.28,24.96c0,11.07-4.19,19.76-12.57,26.06-8.38,6.3-19.66,9.45-33.84,9.45-9.84,0-18.81-1.8-26.89-5.41s-14.25-8.54-18.5-14.81c-4.25-6.27-6.37-13.54-6.37-21.8h26.46c0,14.12,8.44,21.18,25.31,21.18,6.27,0,11.16-1.27,14.68-3.82s5.27-6.11,5.27-10.68Z"/>
    <path class="cls-6" d="m903.84,337.67c0-4.98-1.76-8.8-5.27-11.47-3.52-2.67-9.84-5.48-18.98-8.44-9.14-2.96-16.38-5.87-21.71-8.75-14.53-7.85-21.8-18.43-21.8-31.73,0-6.91,1.95-13.08,5.84-18.5,3.9-5.42,9.49-9.65,16.79-12.7,7.29-3.05,15.48-4.57,24.57-4.57s17.28,1.66,24.43,4.97c7.15,3.31,12.7,7.98,16.66,14.02,3.96,6.04,5.93,12.89,5.93,20.57h-26.37c0-5.86-1.85-10.42-5.54-13.67s-8.88-4.88-15.56-4.88-11.46,1.36-15.03,4.09c-3.57,2.72-5.36,6.31-5.36,10.77,0,4.16,2.09,7.65,6.28,10.46,4.19,2.81,10.36,5.45,18.5,7.91,15,4.51,25.93,10.11,32.78,16.79s10.28,15,10.28,24.96c0,11.07-4.19,19.76-12.57,26.06-8.38,6.3-19.66,9.45-33.84,9.45-9.84,0-18.81-1.8-26.89-5.41s-14.25-8.54-18.5-14.81c-4.25-6.27-6.37-13.54-6.37-21.8h26.46c0,14.12,8.44,21.18,25.31,21.18,6.27,0,11.16-1.27,14.68-3.82s5.27-6.11,5.27-10.68Z"/>
    <path class="cls-6" d="m1084.02,264.63h-39.2v106.61h-26.37v-106.61h-38.67v-21.36h104.24v21.36Z"/>
    <path class="cls-6" d="m1201.71,310.16c0,12.6-2.23,23.64-6.68,33.13-4.45,9.49-10.83,16.82-19.12,21.97-8.29,5.16-17.8,7.73-28.52,7.73s-20.07-2.55-28.39-7.65c-8.32-5.1-14.77-12.38-19.34-21.84-4.57-9.46-6.89-20.35-6.94-32.65v-6.33c0-12.6,2.27-23.69,6.81-33.27,4.54-9.58,10.96-16.93,19.25-22.06,8.29-5.13,17.77-7.69,28.43-7.69s20.14,2.56,28.43,7.69c8.29,5.13,14.71,12.48,19.25,22.06,4.54,9.58,6.81,20.64,6.81,33.18v5.71Zm-26.72-5.8c0-13.42-2.4-23.61-7.21-30.59-4.8-6.97-11.66-10.46-20.57-10.46s-15.67,3.44-20.48,10.33c-4.8,6.89-7.24,16.98-7.29,30.28v6.24c0,13.07,2.4,23.2,7.21,30.41,4.8,7.21,11.72,10.81,20.74,10.81s15.64-3.47,20.39-10.42,7.15-17.06,7.21-30.37v-6.24Z"/>
    <path class="cls-6" d="m1268.24,324.4h-21.01v46.85h-26.37v-127.97h47.55c15.12,0,26.78,3.37,34.98,10.11,8.2,6.74,12.3,16.26,12.3,28.56,0,8.73-1.89,16.01-5.67,21.84-3.78,5.83-9.51,10.47-17.18,13.93l27.69,52.29v1.23h-28.3l-23.99-46.85Zm-21.01-21.36h21.27c6.62,0,11.75-1.68,15.38-5.05,3.63-3.37,5.45-8.01,5.45-13.93s-1.71-10.78-5.14-14.24c-3.43-3.46-8.69-5.19-15.78-5.19h-21.18v38.41Z"/>
    <path class="cls-6" d="m1427.67,264.63h-39.2v106.61h-26.37v-106.61h-38.67v-21.36h104.24v21.36Z"/>
    <path class="cls-1" d="m550.61,549.24h-26.37v-54.84h-51.42v54.84h-26.37v-127.97h26.37v51.86h51.42v-51.86h26.37v127.97Z"/>
    <path class="cls-1" d="m650.63,493.78h-50.62v34.28h59.41v21.18h-85.78v-127.97h85.61v21.36h-59.24v30.5h50.62v20.65Z"/>
    <path class="cls-1" d="m701.26,528.06h55.99v21.18h-82.35v-127.97h26.37v106.79Z"/>
    <path class="cls-1" d="m798.73,504.15v45.09h-26.37v-127.97h49.92c9.61,0,18.06,1.76,25.36,5.27s12.91,8.51,16.83,14.99c3.92,6.47,5.89,13.84,5.89,22.1,0,12.54-4.29,22.43-12.88,29.66-8.58,7.24-20.46,10.85-35.64,10.85h-23.12Zm0-21.36h23.55c6.97,0,12.29-1.64,15.95-4.92,3.66-3.28,5.49-7.97,5.49-14.06s-1.85-11.34-5.54-15.21-8.79-5.86-15.29-5.98h-24.17v40.17Z"/>
    <path class="cls-1" d="m1037.35,549.24h-26.37l-51.33-84.2v84.2h-26.37v-127.97h26.37l51.42,84.38v-84.38h26.28v127.97Z"/>
    <path class="cls-1" d="m1165.49,488.16c0,12.6-2.23,23.64-6.68,33.13-4.45,9.49-10.83,16.82-19.12,21.97-8.29,5.16-17.8,7.73-28.52,7.73s-20.07-2.55-28.39-7.65c-8.32-5.1-14.77-12.38-19.34-21.84-4.57-9.46-6.89-20.35-6.94-32.65v-6.33c0-12.6,2.27-23.69,6.81-33.27,4.54-9.58,10.96-16.93,19.25-22.06,8.29-5.13,17.77-7.69,28.43-7.69s20.14,2.56,28.43,7.69c8.29,5.13,14.71,12.48,19.25,22.06,4.54,9.58,6.81,20.64,6.81,33.18v5.71Zm-26.72-5.8c0-13.42-2.4-23.61-7.21-30.59-4.8-6.97-11.66-10.46-20.57-10.46s-15.67,3.44-20.48,10.33c-4.8,6.89-7.24,16.98-7.29,30.28v6.24c0,13.07,2.4,23.2,7.21,30.41,4.8,7.21,11.72,10.81,20.74,10.81s15.64-3.47,20.39-10.42,7.15-17.06,7.21-30.37v-6.24Z"/>
    <path class="cls-1" d="m1284.32,512.33l17.23-91.05h26.28l-28.39,127.97h-26.54l-20.83-85.61-20.83,85.61h-26.54l-28.39-127.97h26.28l17.31,90.88,21.09-90.88h22.32l21.01,91.05Z"/>
  </g>
</svg>